<?xml version="1.0" standalone="no"?>
<!DOCTYPE svg PUBLIC "-//W3C//DTD SVG 20010904//EN"
 "http://www.w3.org/TR/2001/REC-SVG-20010904/DTD/svg10.dtd">
<svg version="1.0" xmlns="http://www.w3.org/2000/svg"
 width="512.000000pt" height="512.000000pt" viewBox="0 0 512.000000 512.000000"
 preserveAspectRatio="xMidYMid meet">

<g transform="translate(0.000000,512.000000) scale(0.100000,-0.100000)"
fill="#000000" stroke="none">
<path d="M2457 4646 c-78 -32 -118 -60 -267 -181 -193 -157 -408 -293 -617
-391 -182 -85 -197 -93 -235 -124 -101 -84 -105 -245 -8 -385 17 -24 30 -46
30 -48 0 -2 -34 -10 -76 -17 -341 -55 -617 -323 -684 -667 -8 -38 -11 -105 -8
-170 13 -287 170 -497 459 -616 108 -45 182 -64 343 -88 276 -40 569 -18 926
71 236 59 369 71 491 46 231 -49 337 -217 251 -398 -32 -69 -114 -186 -136
-194 -8 -3 -52 6 -98 21 -115 36 -413 109 -528 129 -52 9 -171 24 -265 33
-257 24 -507 4 -775 -63 -483 -121 -897 -429 -1134 -845 -31 -54 -56 -102 -56
-106 1 -10 246 -203 257 -203 4 0 24 28 43 62 108 191 292 357 487 438 187 78
354 106 592 97 265 -10 413 -44 966 -227 215 -71 489 -160 611 -199 121 -39
267 -88 325 -109 220 -82 192 -92 814 287 379 231 483 318 616 515 264 391
327 923 168 1408 -43 133 -148 339 -225 441 -267 355 -659 555 -1124 574 -156
6 -304 -9 -473 -48 -49 -12 -90 -19 -92 -17 -1 1 93 144 211 316 175 256 210
314 196 319 -89 32 -339 147 -527 241 l-230 116 -85 3 c-72 3 -94 0 -143 -21z
m28 -715 c44 -17 106 -48 138 -69 58 -38 288 -224 284 -229 -2 -1 -72 -20
-157 -42 -347 -90 -523 -103 -616 -45 -71 43 -109 110 -109 188 2 198 219 291
460 197z m-895 -655 c20 -25 182 -132 255 -169 108 -54 235 -95 400 -129 134
-28 168 -32 325 -32 l175 0 176 46 c223 60 327 78 449 78 306 0 606 -196 863
-562 96 -137 160 -265 188 -378 41 -160 14 -344 -69 -490 -73 -127 -215 -279
-317 -340 -118 -70 -241 -95 -340 -69 -104 27 -305 93 -305 101 0 4 75 94 168
199 92 105 190 224 219 265 253 367 98 828 -313 931 -53 13 -111 17 -244 17
-196 0 -281 -11 -630 -79 -311 -61 -378 -68 -559 -63 -135 4 -167 9 -241 33
-150 48 -245 111 -316 208 -63 85 -87 156 -82 244 3 61 8 78 34 114 30 41 103
89 135 89 9 0 22 -6 29 -14z"/>
</g>
</svg>
